<svg width="1440" height="1024" viewBox="0 0 1440 1024" fill="none" xmlns="http://www.w3.org/2000/svg">
<g filter="url(#filter0_d)">
<rect width="1440" height="1024" fill="url(#paint0_radial)"/>
<rect width="1440" height="1024" fill="url(#paint1_radial)"/>
</g>
<g opacity="0.2">
<path d="M1206.82 207.068C1288.66 41.6766 1401.26 158.687 1441 4V1024H284C369.545 806.403 591.277 659.809 727.232 659.809C944.837 659.809 1041.66 823.627 1164.58 632.512C1259.22 485.371 1141.59 338.896 1206.82 207.068Z" fill="url(#paint2_linear)"/>
<path d="M1206.82 207.068C1288.66 41.6766 1401.26 158.687 1441 4V1024H284C369.545 806.403 591.277 659.809 727.232 659.809C944.837 659.809 1041.66 823.627 1164.58 632.512C1259.22 485.371 1141.59 338.896 1206.82 207.068Z" fill="url(#paint3_linear)"/>
</g>
<path d="M1042.83 695.294C1266.21 695.294 1399.04 435.75 1439 281V1023H0C76.331 959.724 112.593 1006.39 220.392 959.724C343.489 906.438 483.788 1056.97 655.264 935.079C797 834.329 737.508 695.294 1042.83 695.294Z" fill="url(#paint4_linear)"/>
<defs>
<filter id="filter0_d" x="-40" y="-25" width="1520" height="1104" filterUnits="userSpaceOnUse" color-interpolation-filters="sRGB">
<feFlood flood-opacity="0" result="BackgroundImageFix"/>
<feColorMatrix in="SourceAlpha" type="matrix" values="0 0 0 0 0 0 0 0 0 0 0 0 0 0 0 0 0 0 127 0"/>
<feOffset dy="15"/>
<feGaussianBlur stdDeviation="20"/>
<feColorMatrix type="matrix" values="0 0 0 0 0 0 0 0 0 0 0 0 0 0 0 0 0 0 0.25 0"/>
<feBlend mode="normal" in2="BackgroundImageFix" result="effect1_dropShadow"/>
<feBlend mode="normal" in="SourceGraphic" in2="effect1_dropShadow" result="shape"/>
</filter>
<radialGradient id="paint0_radial" cx="0" cy="0" r="1" gradientUnits="userSpaceOnUse" gradientTransform="translate(2108.46 341.755) rotate(41.7026) scale(962.036 1572.08)">
<stop stop-color="#20135C"/>
<stop offset="0.928177" stop-color="#140739"/>
</radialGradient>
<radialGradient id="paint1_radial" cx="0" cy="0" r="1" gradientUnits="userSpaceOnUse" gradientTransform="translate(1993.35 194.97) rotate(41.4821) scale(1562.69 2199.08)">
<stop stop-color="#4486C4"/>
<stop offset="0.839114" stop-color="#376D9F" stop-opacity="0"/>
</radialGradient>
<linearGradient id="paint2_linear" x1="370.08" y1="994.704" x2="1520.51" y2="645.12" gradientUnits="userSpaceOnUse">
<stop stop-color="#160A41"/>
<stop offset="1" stop-color="#018FFF" stop-opacity="0"/>
</linearGradient>
<linearGradient id="paint3_linear" x1="862.5" y1="4" x2="862.5" y2="1024" gradientUnits="userSpaceOnUse">
<stop stop-color="#5899D5"/>
<stop offset="1" stop-color="white" stop-opacity="0"/>
</linearGradient>
<linearGradient id="paint4_linear" x1="394.018" y1="1045.65" x2="1549.68" y2="692.723" gradientUnits="userSpaceOnUse">
<stop stop-color="#160A41"/>
<stop offset="1" stop-color="#018FFF" stop-opacity="0"/>
</linearGradient>
</defs>
</svg>
